<?xml version="1.0" encoding="utf-8"?>

<svg version="1.1" id="Laag_2" xmlns="http://www.w3.org/2000/svg" xmlns:xlink="http://www.w3.org/1999/xlink" x="0px" y="0px"
	 viewBox="0 0 100 137"  enable-background="new 0 0 200 137" xml:space="preserve" width="140px" height="137px">
   <g id="svg_43">
    <path fill="#BD112A" d="m96,2c-29.2,0 -29.5,29.5 -29.5,29.5l0,-0.1l0,37.8l-29.4,0l0,29.4l29.4,0l-0.1,0c28.2,0 29.4,-27.5 29.5,-29.4l0,-37.8l31.2,0l0,-29.4l-31.1,0z"  id="svg_44"/>
    <path fill="#2D2B43" d="m57,106.5l-28.7,0l0,-46.3l28.8,0l0,-29.4l-28.7,0c0,0 -26.7,0.3 -27,29.5l0,46.1c0,0 -1.8,29.2 27,29.5l28.6,0l0,-29.4z"  id="svg_45"/>
   </g>
</svg>