<?xml version="1.0" encoding="utf-8"?>

<svg version="1.1" id="Laag_2" xmlns="http://www.w3.org/2000/svg" xmlns:xlink="http://www.w3.org/1999/xlink" x="0px" y="0px"
	 viewBox="0 0 800 137"  enable-background="new 0 0 763 137" xml:space="preserve" >
 <g>
  <title>Layer 1</title>
  <g id="svg_1">
   <g stroke="null" id="svg_2">
    <g stroke="null" id="svg_3">
     <g stroke="null" id="svg_4">
      <g stroke="null" id="svg_5">
       <g stroke="null" id="svg_6">
        <path stroke="null" fill="#ffffff" d="m500.8217,73.604847c0,-5.452418 1.91405,-9.961161 5.63582,-13.52621c3.72177,-3.565049 8.71958,-5.347569 15.09976,-5.347569c7.23087,0 12.76036,2.097088 16.48213,6.186404c2.97742,3.35534 4.46613,7.444665 4.46613,12.372816c0,5.452428 -1.80772,9.961161 -5.52949,13.52621c-3.72177,3.460199 -8.82592,5.242719 -15.31243,5.242719c-5.8485,0 -10.5273,-1.467961 -14.14273,-4.403884c-4.46613,-3.46019 -6.69919,-8.178641 -6.69919,-14.050487zm13.93005,0c0,3.145631 0.63802,5.557287 1.91406,7.025248c1.27603,1.572811 2.97741,2.306796 4.89147,2.306796c2.02039,0 3.61543,-0.733985 4.89147,-2.201947c1.27604,-1.467961 1.91405,-3.879607 1.91405,-7.234947c0,-3.145631 -0.63801,-5.452428 -1.91405,-6.920389c-1.27604,-1.467961 -2.87108,-2.306796 -4.78513,-2.306796c-2.02039,0 -3.72178,0.733985 -4.99781,2.306796c-1.27604,1.467961 -1.91406,3.879607 -1.91406,7.025239z" id="svg_7"/>
       </g>
      </g>
      <g stroke="null" id="svg_8">
       <g stroke="null" id="svg_9">
        <path stroke="null" fill="#ffffff" d="m549.20472,55.674754l12.97303,0l0,5.242719c1.91406,-2.201937 3.72177,-3.669899 5.63583,-4.613593c1.91405,-0.943685 4.14711,-1.363102 6.91186,-1.363102c2.87108,0 5.21048,0.524267 6.91186,1.467961c1.70138,1.048544 3.08375,2.516505 4.14712,4.508734c2.23306,-2.306796 4.14711,-3.879607 5.95483,-4.718442c1.80772,-0.838835 4.04078,-1.258253 6.59285,-1.258253c3.82811,0 6.91186,1.153394 9.03859,3.46019c2.23306,2.306796 3.29643,5.871845 3.29643,10.695146l0,22.229128l-13.93006,0l0,-20.341749c0,-1.572811 -0.31901,-2.831064 -0.95703,-3.565049c-0.95703,-1.258253 -2.12673,-1.887379 -3.5091,-1.887379c-1.59504,0 -2.97742,0.629126 -3.93444,1.782529c-0.95703,1.153394 -1.48871,3.040772 -1.48871,5.662127l0,18.349521l-13.93006,0l0,-19.712623c0,-1.57282 -0.10634,-2.621364 -0.31901,-3.145631c-0.31901,-0.943694 -0.85069,-1.57282 -1.48871,-2.201947c-0.74435,-0.524267 -1.59504,-0.838835 -2.55207,-0.838835c-1.59504,0 -2.87108,0.629126 -3.93444,1.782529c-1.06337,1.153394 -1.59505,3.145631 -1.59505,5.871845l0,18.244662l-13.82372,0l0,-35.650488z"  id="svg_10"/>
       </g>
      </g>
      <g stroke="null" id="svg_11">
       <g stroke="null" id="svg_12">
        <path stroke="null" fill="#ffffff" d="m619.06769,104.956311l0,-49.281557l12.97303,0l0,5.242719c1.80771,-2.201937 3.40276,-3.669899 4.89147,-4.508734c2.02039,-1.048544 4.25345,-1.57282 6.69919,-1.57282c4.89147,0 8.61324,1.782529 11.27165,5.452428c2.6584,3.669908 3.93444,8.178641 3.93444,13.526219c0,5.976695 -1.48871,10.485428 -4.35979,13.63106c-2.87108,3.145631 -6.48651,4.718452 -10.95264,4.718452c-2.12673,0 -4.04078,-0.314568 -5.8485,-1.048544c-1.80771,-0.733985 -3.29642,-1.782529 -4.78513,-3.145631l0,16.9864l-13.82372,0l0,0.000009zm13.93005,-31.351454c0,2.831064 0.63802,4.928151 1.80772,6.291253c1.1697,1.363112 2.76474,2.097088 4.57246,2.097088c1.59505,0 2.97742,-0.629126 4.04078,-1.992229c1.06337,-1.258253 1.59505,-3.565049 1.59505,-6.71068c0,-2.935923 -0.53168,-5.03301 -1.70138,-6.396112c-1.1697,-1.363112 -2.55207,-1.992238 -4.14712,-1.992238c-1.80772,0 -3.29643,0.733985 -4.46613,2.097088c-1.1697,1.363112 -1.70138,3.565049 -1.70138,6.60583z"  id="svg_13"/>
       </g>
      </g>
      <g stroke="null" id="svg_14">
       <g stroke="null" id="svg_15">
        <path stroke="null" fill="#ffffff" d="m712.2183,55.674754l12.97303,0l0,5.766995c1.91406,-2.411655 3.93445,-4.089325 5.8485,-5.137869c2.02039,-1.048544 4.35979,-1.572811 7.23087,-1.572811c3.82811,0 6.91186,1.153394 9.03859,3.35534c2.23306,2.306796 3.29643,5.766986 3.29643,10.485438l0,22.753395l-13.93006,0l0,-19.607764c0,-2.201947 -0.42535,-3.879617 -1.27604,-4.718452c-0.85069,-0.943685 -2.02039,-1.363102 -3.5091,-1.363102c-1.70138,0 -3.08375,0.629126 -4.04078,1.887379c-1.06336,1.258253 -1.59504,3.565049 -1.59504,6.71068l0,17.091259l-13.93006,0l0,-35.650488l-0.10634,0z"  id="svg_16"/>
       </g>
      </g>
      <g stroke="null" id="svg_17">
       <g stroke="null" id="svg_18">
        <path stroke="null" fill="#ffffff" d="m754.75283,55.674754l14.67441,0l7.44355,23.801939l6.91186,-23.801939l13.71739,0l-14.35541,38.166993c-1.59504,4.403884 -3.29642,7.339806 -4.99781,8.807768c-2.44573,2.201937 -6.06117,3.250481 -11.05897,3.250481c-2.02039,0 -5.10415,-0.314558 -9.25126,-0.838835l-1.06337,-9.541744c2.02039,0.629126 4.25346,0.943685 6.69919,0.943685c1.59505,0 2.97742,-0.419418 3.93445,-1.153394c1.06336,-0.733985 1.91405,-2.097088 2.55207,-3.984466l-15.2061,-35.650488z"  id="svg_19"/>
       </g>
      </g>
      <g stroke="null" id="svg_20">
       <path stroke="null" fill="#ffffff" d="m496.67458,71.193201l-0.21267,0l-14.14274,0l0,0c-0.63801,3.145631 -1.80771,5.452428 -3.29642,7.130098c-1.48871,1.67767 -3.72177,2.411655 -6.69919,2.411655c-3.08375,0 -5.42315,-1.048553 -7.12453,-3.040782c-1.70138,-1.992238 -2.55208,-5.766986 -2.55208,-11.219414c0,-4.403884 0.74436,-7.654374 2.12673,-9.751462c1.80772,-2.726214 4.57246,-4.194175 8.08156,-4.194175c1.59505,0 2.97742,0.314568 4.14712,0.943694c1.27603,0.629126 2.3394,1.572811 3.19009,2.726214c0.53168,0.733976 1.06336,1.78252 1.48871,3.250481l0,0l14.46174,0c0,0 -0.63802,-2.621355 -0.74436,-3.040772l0,0c-1.70138,-5.242719 -4.46612,-9.017476 -8.08156,-11.533981c-3.61543,-2.516505 -8.5069,-3.774758 -14.88708,-3.774758c-8.08156,0 -14.24907,2.201947 -18.7152,6.60583c-4.35978,4.403884 -6.59285,10.695137 -6.59285,18.768929c0,6.081554 1.27604,11.114564 3.72177,15.09903c2.55208,3.879607 5.52949,6.710671 8.93225,8.178632c3.40277,1.57282 7.86889,2.306796 13.29204,2.306796c4.46613,0 8.1879,-0.629126 11.05898,-1.887379c2.87108,-1.258253 5.31682,-3.145631 7.23087,-5.662127c1.91406,-2.516505 3.40276,-5.662136 4.25346,-9.436894l0,0c0.319,-0.104859 1.06336,-3.879617 1.06336,-3.879617z"  id="svg_21"/>
      </g>
      <g stroke="null" id="svg_22">
       <g stroke="null" id="svg_23">
        <path stroke="null" fill="#ffffff" d="m704.13674,87.760193c-0.21267,-0.943694 -0.31901,-2.306796 -0.31901,-3.984466l0,-15.833006c0,-1.67767 -0.319,-3.460199 -1.06336,-5.242719c-0.63802,-1.887379 -1.59504,-3.25049 -2.76474,-4.299034c-1.70138,-1.467961 -3.82811,-2.411646 -6.27385,-2.831064c-2.55207,-0.419418 -5.84849,-0.733985 -9.99561,-0.733985c-2.55207,0 -4.99781,0.209709 -7.23087,0.524277c-2.23306,0.419418 -3.93444,0.943685 -5.21048,1.572811c-1.80772,0.943694 -3.08375,2.097088 -4.04078,3.460199c-0.95703,1.258253 -1.70138,3.145631 -2.12673,5.347569l0,0c0,0.104859 -0.21267,1.363112 -0.21267,1.363112l0.10634,0l13.39838,0l0,0c0.53168,-1.57282 1.27603,-2.621364 2.12672,-3.145631c1.1697,-0.733985 2.87108,-1.048544 5.10414,-1.048544c1.80772,0 2.97742,0.314558 3.72178,1.048544c0.74435,0.629126 1.06336,1.887379 1.06336,3.56504c-1.70138,0.629136 -3.40276,1.258253 -4.89147,1.67767c-1.59505,0.419418 -4.89147,1.153403 -10.10195,2.201947c-4.35979,0.838835 -7.33721,2.097088 -8.93225,3.879607c-1.59505,1.782529 -2.44574,3.984466 -2.44574,6.71068c0,2.935923 1.1697,5.347578 3.40276,7.339806c2.23307,1.992238 5.52949,2.935923 9.88928,2.935923c3.29643,0 6.06117,-0.524267 8.61324,-1.467961c1.80772,-0.733976 3.61544,-1.992229 5.42315,-3.669899c0.10634,1.048544 0.31901,1.78252 0.42535,2.306796c0.21267,0.524267 0.53168,1.153394 1.06336,2.097088l13.07937,0c-1.06336,-1.67767 -1.59504,-2.831073 -1.80772,-3.774758zm-13.82372,-11.114564c0,1.67767 -0.31901,3.040782 -0.85069,4.194175c-0.53168,1.048544 -1.48871,1.992229 -2.87108,2.726214c-1.27604,0.733976 -2.76474,1.153394 -4.35979,1.153394c-1.48871,0 -2.55207,-0.314558 -3.40276,-1.048544c-0.74436,-0.733976 -1.1697,-1.572811 -1.1697,-2.621355c0,-0.943694 0.42534,-1.782529 1.1697,-2.516505c0.74435,-0.733985 2.55207,-1.467961 5.31682,-2.201947c2.02039,-0.524267 4.04078,-1.153394 5.95483,-1.78252l0,2.097088l0.21267,0z"  id="svg_24"/>
       </g>
      </g>
     </g>
    </g>
    <g stroke="null" id="svg_25">
     <g stroke="null" id="svg_26">
      <g stroke="null" id="svg_27">
       <g stroke="null" id="svg_28">
        <path stroke="null" fill="#ffffff" d="m286.87302,73.604847c0,-5.452418 1.80771,-9.961161 5.63582,-13.421351c3.72177,-3.565049 8.71958,-5.347578 15.09976,-5.347578c7.23087,0 12.76036,2.097088 16.48213,6.186413c2.97742,3.35534 4.46612,7.444656 4.46612,12.372807c0,5.452428 -1.80771,9.96117 -5.52948,13.526219c-3.72178,3.565049 -8.82592,5.242719 -15.31243,5.242719c-5.8485,0 -10.5273,-1.467961 -14.14274,-4.403884c-4.57246,-3.565049 -6.69918,-8.2835 -6.69918,-14.155346zm13.82372,0c0,3.145631 0.63802,5.557287 1.91405,7.025248c1.27604,1.572811 2.97742,2.306796 4.89147,2.306796c2.02039,0 3.61544,-0.733985 4.89147,-2.201947c1.27604,-1.467961 1.91406,-3.879607 1.91406,-7.234947c0,-3.040782 -0.63802,-5.347569 -1.91406,-6.920389c-1.27603,-1.467961 -2.87108,-2.306796 -4.78513,-2.306796c-2.02039,0 -3.72177,0.733985 -4.99781,2.306796c-1.1697,1.467961 -1.91405,3.879607 -1.91405,7.025239z"  id="svg_29"/>
       </g>
      </g>
      <g stroke="null" id="svg_30">
       <g stroke="null" id="svg_31">
        <path stroke="null" fill="#ffffff" d="m335.14971,55.674754l12.97303,0l0,5.766995c1.91405,-2.411655 3.93444,-4.089325 5.84849,-5.137869c2.02039,-1.048544 4.35979,-1.572811 7.23087,-1.572811c3.82811,0 6.80553,1.153394 9.03859,3.35534c2.12673,2.201937 3.29643,5.766986 3.29643,10.485438l0,22.753395l-13.93006,0l0,-19.607764c0,-2.201947 -0.42535,-3.774758 -1.27604,-4.718452c-0.85069,-0.943685 -2.02039,-1.363102 -3.50909,-1.363102c-1.70139,0 -3.08376,0.629126 -4.14712,1.887379c-1.06336,1.258253 -1.59505,3.46019 -1.59505,6.71068l0,17.091259l-13.93005,0l0,-35.650488z"  id="svg_32"/>
       </g>
      </g>
      <g stroke="null" id="svg_33">
       <g stroke="null" id="svg_34">
        <path stroke="null" fill="#ffffff" d="m419.89976,42.043685l0,49.281557l-12.97304,0l0,-5.242719c-1.80771,2.201937 -3.50909,3.774758 -4.9978,4.508734c-2.02039,1.048544 -4.25346,1.57282 -6.69919,1.57282c-4.89147,0 -8.71958,-1.887379 -11.27165,-5.557287c-2.55207,-3.669899 -3.93444,-8.178641 -3.93444,-13.52621c0,-5.871845 1.38237,-10.485438 4.35978,-13.631069c2.87108,-3.145631 6.48652,-4.718442 10.95264,-4.718442c2.12673,0 4.14712,0.314558 5.8485,1.048544c1.70138,0.733976 3.29643,1.78252 4.6788,3.250481l0,-16.9864l14.0364,0l0,-0.000009zm-13.93006,31.351463c0,-2.831073 -0.63802,-4.92816 -1.80772,-6.291263c-1.1697,-1.363112 -2.76474,-2.097088 -4.57246,-2.097088c-1.59505,0 -2.97742,0.629126 -4.04078,1.992229c-1.06336,1.363112 -1.59505,3.565049 -1.59505,6.71068c0,2.935923 0.53169,5.03301 1.70138,6.396112c1.1697,1.363112 2.55208,1.992238 4.14712,1.992238c1.80772,0 3.19009,-0.733985 4.46613,-2.097088c1.06336,-1.258253 1.70138,-3.565049 1.70138,-6.605821z"  id="svg_35"/>
       </g>
      </g>
      <g stroke="null" id="svg_36">
       <path stroke="null" fill="#ffffff" d="m186.49153,68.04757c-1.38238,-2.201937 -3.5091,-3.984466 -6.38018,-5.452428c-2.87108,-1.467961 -7.76255,-2.935923 -14.46174,-4.403884c-2.76475,-0.524267 -4.46613,-1.153394 -5.21048,-1.78252c-0.74436,-0.629126 -1.1697,-1.363112 -1.1697,-2.097088c0,-1.048544 0.42534,-1.992238 1.38237,-2.726214c0.95703,-0.733985 2.23306,-1.153403 4.04078,-1.153403c2.23306,0 3.93444,0.524277 5.10414,1.467961c1.27604,1.048544 2.02039,2.621364 2.44574,4.823301l14.67441,0c0,0 0,-0.314558 -0.10634,-0.838835l0,0c0,0 0,0 0,-0.10485c0,-0.104859 0,-0.209709 0,-0.314568c0,0 0,0 0,0c-0.74435,-4.928151 -2.6584,-8.4932 -5.95483,-10.799996c-3.40276,-2.306796 -8.1879,-3.565049 -14.56808,-3.565049c-5.21048,0 -9.35759,0.629126 -12.33501,1.887379c-2.97742,1.258253 -5.21048,3.040772 -6.69919,5.347569c-1.48871,2.201947 -2.23306,4.613593 -2.23306,7.130098c0,3.879617 1.48871,7.025248 4.35979,9.541753c2.87108,2.516505 7.76255,4.508734 14.46174,5.976695c4.14712,0.943694 6.80552,1.887379 7.86889,2.831073c1.1697,1.048544 1.70138,2.201937 1.70138,3.46019c0,1.363102 -0.63802,2.516505 -1.80772,3.565049c-1.1697,1.048544 -2.87108,1.572811 -5.10414,1.572811c-2.97742,0 -5.21048,-1.048544 -6.80553,-3.040772c-0.95702,-1.258253 -1.59504,-3.040782 -1.91405,-5.347578l-14.78075,0c0,0 0.10634,0.733985 0.10634,1.153403c0,0 0,0 0,0c0.42534,4.823301 2.3394,8.912617 5.52949,12.058249c3.29642,3.25049 9.14492,4.823301 17.65182,4.823301c4.89148,0 8.82592,-0.733976 12.01601,-2.097088c3.19009,-1.363102 5.63582,-3.35534 7.44354,-6.081554c1.80772,-2.621355 2.65841,-5.557277 2.65841,-8.702909c0.10634,-2.516505 -0.63802,-5.03301 -1.91405,-7.130098z"  id="svg_37"/>
      </g>
      <g stroke="null" id="svg_38">
       <g stroke="null" id="svg_39">
        <path stroke="null" fill="#ffffff" d="m235.51257,75.387377c0,-4.718442 -0.74435,-8.4932 -2.3394,-11.429122c-1.59504,-2.935923 -3.8281,-5.137869 -6.80552,-6.71068c-2.97742,-1.57282 -7.12454,-2.306796 -12.33501,-2.306796c-6.38018,0 -11.37799,1.67767 -14.99343,5.13786c-3.61543,3.460199 -5.42315,7.968933 -5.42315,13.526219c0,3.879607 0.95703,7.339797 2.76475,10.27572c1.80771,2.935923 4.04078,5.03301 6.80552,6.396122c2.76475,1.363102 6.48652,1.992229 11.37799,1.992229c5.52949,0 9.78294,-0.733976 12.76036,-2.306796c2.97741,-1.572811 5.52949,-4.089316 7.54988,-7.759224l0,0c0.319,-0.524267 0.63801,-1.258253 0.63801,-1.258253l-14.46174,0c-0.85069,1.048544 -1.70138,1.782529 -2.44573,2.306796c-1.27604,0.629126 -2.55207,1.048544 -3.93445,1.048544c-2.12672,0 -3.93444,-0.733976 -5.21048,-2.306796c-0.95702,-1.048544 -1.59504,-2.726214 -1.80771,-4.928151l27.86011,0l0,-1.67767zm-27.75378,-5.03301c0.21267,-2.097088 0.74436,-3.774758 1.59505,-4.823301c1.27603,-1.78252 3.08375,-2.621355 5.31681,-2.621355c1.91406,0 3.40276,0.524267 4.57246,1.67767c1.1697,1.153394 1.91406,3.040772 2.12673,5.662136l-13.61105,0l0,0.10485z"  id="svg_40"/>
       </g>
      </g>
      <g stroke="null" id="svg_41">
       <path stroke="null" fill="#ffffff" d="m282.19422,78.847566l0,0c0.10633,-0.733976 0.21267,-1.467961 0.21267,-1.467961l-13.39838,0c-0.63801,1.887379 -1.59504,3.35534 -2.76474,4.194175c-1.27604,0.943694 -2.76475,1.363112 -4.57246,1.363112c-2.12673,0 -3.93445,-0.733985 -5.42316,-2.306796c-1.38237,-1.57282 -2.12672,-3.774758 -2.12672,-6.71068c0,-3.25049 0.74435,-5.766986 2.12672,-7.339806c1.38238,-1.572811 3.29643,-2.411646 5.52949,-2.411646c1.80772,0 3.29643,0.419418 4.35979,1.153394c1.06337,0.733985 1.80772,1.887379 2.23307,3.46019l13.29204,0c0,0 -0.10634,-0.943685 -0.21268,-1.67767l0,0c0,-0.10485 0,-0.10485 -0.10633,-0.209709c-0.10634,-0.209709 -0.10634,-0.524267 -0.21268,-0.629126c-1.27603,-3.56504 -3.29642,-6.396112 -6.1675,-8.283491c-3.08376,-2.097088 -7.65622,-3.145631 -13.50472,-3.145631c-4.25345,0 -7.65621,0.524277 -10.42096,1.67767c-1.70138,0.733985 -3.40276,1.782529 -4.9978,3.145631c-1.59505,1.467961 -2.87108,3.040782 -3.82811,4.823301c-1.27604,2.411646 -1.91405,5.452428 -1.91405,9.227185c0,3.565049 0.53168,6.396112 1.59504,8.4932c1.06336,2.097088 2.44574,3.984466 4.35979,5.557287c1.80772,1.572811 4.04078,2.726214 6.59285,3.46019c2.55207,0.733985 5.74216,1.048544 9.57027,1.048544c3.93444,0 7.23087,-0.524267 9.88928,-1.67767c2.55207,-1.153394 4.6788,-2.621355 6.38018,-4.613593c1.38237,-1.67767 2.44573,-3.669899 3.19009,-5.871845c0.10633,-0.209709 0.21267,-0.524267 0.21267,-0.838835c0,-0.209709 0,-0.314558 0.10634,-0.419418z"  id="svg_42"/>
      </g>
     </g>
    </g>
   </g>
   <g id="svg_43">
    <path fill="#BD112A" d="m96,2c-29.2,0 -29.5,29.5 -29.5,29.5l0,-0.1l0,37.8l-29.4,0l0,29.4l29.4,0l-0.1,0c28.2,0 29.4,-27.5 29.5,-29.4l0,-37.8l31.2,0l0,-29.4l-31.1,0z"  id="svg_44"/>
    <path fill="#ffffff" d="m57,106.5l-28.7,0l0,-46.3l28.8,0l0,-29.4l-28.7,0c0,0 -26.7,0.3 -27,29.5l0,46.1c0,0 -1.8,29.2 27,29.5l28.6,0l0,-29.4z"  id="svg_45"/>
   </g>
  </g>
 </g>
</svg>